<svg width="77" height="74" viewBox="0 0 77 74" fill="none" xmlns="http://www.w3.org/2000/svg">
<path d="M26.2571 51.8095V66.1905L38.7143 73.3809L51.1714 66.1905V51.8095L38.7143 44.6095L26.2571 51.8095Z" fill="#FEB51E" stroke="white" stroke-miterlimit="10"/>
<path d="M51.4381 8.19048V22.5714L63.8952 29.7619L76.3428 22.5714V8.19048L63.8952 1L51.4381 8.19048Z" fill="#FEB51E" stroke="white" stroke-miterlimit="10"/>
<path d="M26.2571 8.19048V22.5714L38.7143 29.7619L51.1714 22.5714V8.19048L38.7143 1L26.2571 8.19048Z" fill="#FEB51E" stroke="white" stroke-miterlimit="10"/>
<path d="M1 8.19048V22.5714L13.4571 29.7619L25.9143 22.5714V8.19048L13.4571 1L1 8.19048Z" fill="#FEB51E" stroke="white" stroke-miterlimit="10"/>
<path d="M38.8667 29.981V44.3714L51.3238 51.5619L63.781 44.3714V29.981L51.3238 22.7905L38.8667 29.981Z" fill="#FEB51E" stroke="white" stroke-miterlimit="10"/>
<path d="M13.7238 29.981V44.3714L26.1809 51.5619L38.6381 44.3714V29.981L26.1809 22.7905L13.7238 29.981Z" fill="#FEB51E" stroke="white" stroke-miterlimit="10"/>
<path d="M17.9714 10.7905L14.8667 19.381H12.0381L8.93332 10.7905H12.019L13.5238 15.8667L15.019 10.7905H17.9714V10.7905Z" fill="#41014A"/>
<path d="M29.8476 33.2095V41.3714H27.6857V38.1905H24.8286V41.3714H22.6667V33.2095H24.8286V36.2667H27.6857V33.2095H29.8476Z" fill="#41014A"/>
<path d="M55.0095 38.019V39.8762L53.6285 41.2571H47.8666V33.0952H53.3904L54.7714 34.4762V36.3048L54.0381 37.0381L55.0095 38.019V38.019ZM50.0285 36.3238H52.2571L52.6095 35.9714V35.2286L52.3428 34.9619H50.0285V36.3143V36.3238ZM52.8476 39.1238V38.4667L52.4 38.019H50.019V39.3905H52.5714L52.8381 39.1238H52.8476Z" fill="#41014A"/>
<path d="M42.6762 56.5333V61.4571L41.0571 63.0762H36.9048L35.2857 61.4571V56.5333L36.9048 54.9143H41.0571L42.6762 56.5333ZM40.5143 60.6476V57.3333L40.0095 56.8286H37.9428L37.4381 57.3333V60.6476L37.9428 61.1524H40.0095L40.5143 60.6476Z" fill="#41014A"/>
<path d="M65.1333 14.581V17.8571L65.7809 18.5048H67.3905V20.8381H64.0476L62.2095 19V14.5714H60.4571V12.2381H62.3809L62.7905 9.17143H65.1238V12.2381H67.3905V14.5714H65.1238L65.1333 14.581Z" fill="#41014A"/>
</svg>
